<?xml version="1.0" encoding="UTF-8" standalone="no"?>
<svg width="30px" height="32px" viewBox="0 0 30 32" version="1.1" xmlns="http://www.w3.org/2000/svg" xmlns:xlink="http://www.w3.org/1999/xlink" xmlns:sketch="http://www.bohemiancoding.com/sketch/ns">
    <!-- Generator: Sketch 3.0.4 (8054) - http://www.bohemiancoding.com/sketch -->
    <defs>
        <linearGradient x1="50%" y1="0%" x2="50%" y2="100%" id="linearGradient-1">
            <stop stop-color="#E74C3C" offset="0%"></stop>
            <stop stop-color="#C0392B" offset="100%"></stop>
        </linearGradient>
    </defs>
    <g id="Page-1" stroke="none" stroke-width="1" fill="none" fill-rule="evenodd" sketch:type="MSPage">
        <g id="curly" sketch:type="MSLayerGroup" transform="translate(1.000000, 0.000000)" fill="url(#linearGradient-1)">
            <g id="Page-1" sketch:type="MSShapeGroup">
                <g id="Zen-Desk-Mobile">
                    <path d="M12.595843,0.430892375 C13.6300054,-0.162917382 15.304943,-0.163934234 16.3408763,0.430892375 L27.0894615,6.60266467 C28.1236238,7.19647444 28.9619781,8.63857449 28.9619781,9.82822769 L28.9619781,22.1717723 C28.9619781,23.3593918 28.1253949,24.8025087 27.0894615,25.3973353 L16.3408763,31.5691075 C15.3067139,32.1629175 13.6317763,32.1639343 12.595843,31.5691075 L1.84725773,25.3973353 C0.813095356,24.8035256 -0.0252589033,23.3614255 -0.0252589033,22.1717723 L-0.0252589033,9.82822769 C-0.0252589033,8.64060817 0.811324435,7.19749129 1.84725773,6.60266467 L12.595843,0.430892375 L12.595843,0.430892375 Z M20.9040337,12.0978141 L20.2196785,12.5402131 C19.6569837,11.7234724 18.9289131,11.0750052 18.035445,10.594792 C17.1419769,10.1145787 16.1743844,9.87447567 15.1326386,9.87447567 C14.0148529,9.87447567 12.9845285,10.148609 12.0416345,10.696884 C11.0987404,11.245159 10.3516602,11.988155 9.80037134,12.9258943 C9.24908248,13.8636335 8.9734422,14.8883252 8.9734422,16 C8.9734422,17.1116748 9.24908248,18.1363665 9.80037134,19.0741057 C10.3516602,20.011845 11.0987404,20.754841 12.0416345,21.303116 C12.9845285,21.851391 14.0148529,22.1255243 15.1326386,22.1255243 C16.1743844,22.1255243 17.1438778,21.8835307 18.041148,21.3995363 C18.9384181,20.9155418 19.6683896,20.2614029 20.2310845,19.4370998 L20.9040337,19.9021859 C20.265299,20.8399251 19.4383781,21.5810305 18.4232463,22.1255243 C17.4081144,22.6700181 16.3112561,22.9422609 15.1326386,22.9422609 C13.8703772,22.9422609 12.7031831,22.6322066 11.6310214,22.0120887 C10.5588596,21.3919708 9.71102808,20.5487743 9.08750137,19.482474 C8.46397468,18.4161737 8.15221601,17.2553606 8.15221601,16 C8.15221601,14.7446394 8.46397468,13.5838263 9.08750137,12.517526 C9.71102808,11.4512257 10.5588596,10.6080292 11.6310214,9.9879113 C12.7031831,9.3677934 13.8703772,9.05773908 15.1326386,9.05773908 C16.3112561,9.05773908 17.4081144,9.32998191 18.4232463,9.87447567 C19.4383781,10.4189695 20.265299,11.1600749 20.9040337,12.0978141 L20.9040337,12.0978141 Z M22.272744,11.190329 L21.5883888,11.632728 C20.8736143,10.589115 19.9478431,9.76293367 18.8110475,9.15415939 C17.6742519,8.54538511 16.4481278,8.24100253 15.1326386,8.24100253 C14.0756848,8.24100253 13.06437,8.44518461 12.0986641,8.85355494 C11.1329581,9.26192529 10.3022353,9.81208262 9.60647069,10.5040435 C8.91070615,11.1960043 8.35752462,12.0221856 7.94690946,12.9826121 C7.53629433,13.9430386 7.33098982,14.9488245 7.33098982,16 C7.33098982,17.0511755 7.53629433,18.0569614 7.94690946,19.0173879 C8.35752462,19.9778144 8.91070615,20.8039957 9.60647069,21.4959565 C10.3022353,22.1879174 11.1329581,22.7380747 12.0986641,23.1464451 C13.06437,23.5548154 14.0756848,23.7589975 15.1326386,23.7589975 C16.4557318,23.7589975 17.6837568,23.4527243 18.8167505,22.8401688 C19.9497441,22.2276134 20.8736143,21.3995415 21.5883888,20.3559284 L22.2499321,20.8437016 C21.4591178,21.9931885 20.4382982,22.9025551 19.1874429,23.5718287 C17.9365874,24.2411023 16.5849995,24.5757341 15.1326386,24.5757341 C13.5738218,24.5757341 12.1328884,24.1919473 10.8097952,23.4243624 C9.48670192,22.6567774 8.43926882,21.6150705 7.66746443,20.2992106 C6.89566004,18.9833506 6.50976363,17.5502948 6.50976363,16 C6.50976363,14.4497052 6.89566004,13.0166494 7.66746443,11.7007894 C8.43926882,10.3849295 9.48670192,9.3432226 10.8097952,8.57563764 C12.1328884,7.80805268 13.5738218,7.42426595 15.1326386,7.42426595 C16.5926035,7.42426595 17.9498943,7.76267887 19.2045517,8.43951488 C20.4592091,9.11635089 21.4819296,10.0332798 22.272744,11.190329 L22.272744,11.190329 Z M23.6186424,10.2601568 L22.9342873,10.7025558 C22.0674331,9.43963276 20.9477632,8.44140913 19.5752441,7.70785504 C18.202725,6.97430092 16.7218713,6.60752937 15.1326386,6.60752937 C13.8551692,6.60752937 12.6328471,6.85519468 11.4656355,7.35053277 C10.298424,7.84587087 9.29281214,8.51324384 8.44876989,9.35267174 C7.60472765,10.1920996 6.93368613,11.1922138 6.43562516,12.3530443 C5.93756419,13.5138748 5.68853745,14.7295145 5.68853745,16 C5.68853745,17.2704855 5.93756419,18.4861252 6.43562516,19.6469557 C6.93368613,20.8077862 7.60472765,21.8079004 8.44876989,22.6473283 C9.29281214,23.4867562 10.298424,24.1541291 11.4656355,24.6494672 C12.6328471,25.1448053 13.8551692,25.3924706 15.1326386,25.3924706 C16.7218713,25.3924706 18.2046259,25.0219179 19.5809471,24.2808014 C20.9572682,23.5396849 22.078839,22.5376801 22.9456932,21.2747571 L23.6072365,21.7738739 C22.6643425,23.1351083 21.4477233,24.2146266 19.9573424,25.0124613 C18.4669615,25.8102959 16.858743,26.2092072 15.1326386,26.2092072 C13.7411095,26.2092072 12.4123331,25.938855 11.1462698,25.3981424 C9.88020644,24.8574298 8.78905106,24.131449 7.87277099,23.2201782 C6.95649088,22.3089074 6.22651937,21.2237173 5.68283449,19.9645755 C5.13914964,18.7054336 4.86731126,17.3839217 4.86731126,16 C4.86731126,14.6160783 5.13914964,13.2945664 5.68283449,12.0354245 C6.22651937,10.7762827 6.95649088,9.69109263 7.87277099,8.77982179 C8.78905106,7.86855095 9.88020644,7.14257015 11.1462698,6.60185757 C12.4123331,6.06114502 13.7411095,5.79079279 15.1326386,5.79079279 C16.866347,5.79079279 18.4783674,6.19159468 19.9687483,6.99321053 C21.4591292,7.79482636 22.6757484,8.88379756 23.6186424,10.2601568 L23.6186424,10.2601568 Z" id="c-copy"></path>
                </g>
            </g>
        </g>
    </g>
</svg>